<svg xmlns="http://www.w3.org/2000/svg" width="25.09" height="28.035" viewBox="0 0 25.09 28.035">
    <path id="Icon_awesome-copy"
          d="M17.921,24.531v2.19a1.329,1.329,0,0,1-1.344,1.314H1.344A1.329,1.329,0,0,1,0,26.721V6.571A1.329,1.329,0,0,1,1.344,5.257H5.376V21.465a3.105,3.105,0,0,0,3.136,3.066Zm0-18.836V0H8.513A1.329,1.329,0,0,0,7.169,1.314v20.15a1.329,1.329,0,0,0,1.344,1.314H23.746a1.329,1.329,0,0,0,1.344-1.314V7.009H19.265A1.333,1.333,0,0,1,17.921,5.695ZM24.7,4,21,.385A1.36,1.36,0,0,0,20.053,0h-.339V5.257H25.09V4.925A1.3,1.3,0,0,0,24.7,4Z"
          fill="#ffffff"/>
</svg>
