<svg xmlns="http://www.w3.org/2000/svg" width="216.977" height="72.051" viewBox="0 0 216.977 72.051">
  <g id="Artboard_20_copy_3_Giro_Logos_UI_Pick" transform="translate(-196.43 -380.28)">
    <g id="Group_32" transform="translate(196.43 380.28)">
      <path id="Path_22" d="M196.43,517.764,264.3,498.98l33.777,3.339-69.316,19.834" transform="translate(-196.43 -451.572)" fill="#1e88e5"/>
      <circle id="Ellipse_5" cx="12.765" cy="12.765" r="12.765" transform="translate(30.334)" fill="#ffb703"/>
      <path id="Path_23" d="M212.1,489.224l67.866-18.784,33.777,3.339-69.312,19.834" transform="translate(-205.841 -434.43)" fill="#42a5f5"/>
      <path id="Path_24" d="M226.53,460.454,294.4,441.67l33.777,3.339-69.316,19.834" transform="translate(-214.508 -417.151)" fill="#90caf9"/>
    </g>
    <g id="Group_33" transform="translate(326.837 395.593)">
      <path id="Path_25" d="M551.86,458.835a3.009,3.009,0,0,1,.371,1.566,3.787,3.787,0,0,1-.347,1.785,3.241,3.241,0,0,1-1.09,1.142q-4.271,2.882-6.255,4.27l-3.179,2.133Q539.473,480,536.42,485.89t-7.768,5.883a5.608,5.608,0,0,1-4.122-1.566,5.494,5.494,0,0,1-1.59-4.094,13.6,13.6,0,0,1,2.78-7.573q2.78-4.044,10.424-9.953l.3-1.937a5.986,5.986,0,0,1-4.913,2.78,6.026,6.026,0,0,1-4.913-2.233,8.923,8.923,0,0,1-1.837-5.859,16.111,16.111,0,0,1,1.837-7.521,15.672,15.672,0,0,1,4.889-5.707,11.015,11.015,0,0,1,6.478-2.161,1.928,1.928,0,0,1,1.466.423,3.571,3.571,0,0,1,.619,1.514,10.72,10.72,0,0,1,2.185-.2,3.138,3.138,0,0,1,1.761.371,1.706,1.706,0,0,1,.519,1.466,7.272,7.272,0,0,1-.048.943q-.2,1.54-1.242,7.792c-.132.795-.272,1.661-.423,2.608s-.307,1.945-.471,3q3.822-2.978,7.349-5.264a2.264,2.264,0,0,1,1.142-.4,1.142,1.142,0,0,1,1.018.619ZM532,483.981a40.778,40.778,0,0,0,3-9.482,28.921,28.921,0,0,0-5.512,5.907,8.893,8.893,0,0,0-1.689,4.617,2.692,2.692,0,0,0,.323,1.39,1.144,1.144,0,0,0,1.066.547q1.24,0,2.8-2.98Zm3.5-20.948a9.247,9.247,0,0,0,1.49-3.97l1.59-8.487a5.855,5.855,0,0,0-3.774,1.566,10.665,10.665,0,0,0-2.78,4,13.456,13.456,0,0,0-1.042,5.264,3.538,3.538,0,0,0,.619,2.285,2.111,2.111,0,0,0,1.713.743,2.894,2.894,0,0,0,2.185-1.39Z" transform="translate(-522.94 -435.034)" fill="#fff"/>
      <path id="Path_26" d="M588.666,467.3a11.065,11.065,0,0,1-1.466-6.055,37.275,37.275,0,0,1,.571-5.735,52.851,52.851,0,0,1,1.466-6.53,4.241,4.241,0,0,1,1.19-2.185,3.8,3.8,0,0,1,2.384-.6q2.534,0,2.532,1.689a39.148,39.148,0,0,1-.943,5.759,42.875,42.875,0,0,0-1.19,7.4,5.261,5.261,0,0,0,.4,2.285,1.379,1.379,0,0,0,1.342.795,3.735,3.735,0,0,0,2.233-1.242,43.956,43.956,0,0,0,3.575-3.922,1.739,1.739,0,0,1,1.342-.695,1.149,1.149,0,0,1,1.018.6,3.088,3.088,0,0,1,.371,1.638,4.579,4.579,0,0,1-.943,3.079q-4.913,6.009-9.186,6.007A5.165,5.165,0,0,1,588.666,467.3Z" transform="translate(-561.535 -435.185)" fill="#fff"/>
      <path id="Path_27" d="M594.212,425.394a3.509,3.509,0,0,1-1.042-2.7,3.667,3.667,0,0,1,1.366-2.9,5.048,5.048,0,0,1,3.4-1.166,4.709,4.709,0,0,1,2.979.895,3.032,3.032,0,0,1,1.142,2.532,4.034,4.034,0,0,1-1.29,3.151,4.918,4.918,0,0,1-3.427,1.166,4.41,4.41,0,0,1-3.127-.967Z" transform="translate(-565.12 -418.62)" fill="#42a5f5"/>
      <path id="Path_28" d="M635.334,446.21a7.252,7.252,0,0,0-3.6,1.142,14.371,14.371,0,0,0-4,3.822,28.2,28.2,0,0,0-3.67,6.95,35.2,35.2,0,0,1,.5-3.674q.3-1.486.795-3.475a18.938,18.938,0,0,0,.743-3.575,1.024,1.024,0,0,0-.4-.943,2.833,2.833,0,0,0-1.39-.248,5.162,5.162,0,0,0-2.856.671,3.732,3.732,0,0,0-1.466,2.109,40.494,40.494,0,0,0-1.833,12.262,19.087,19.087,0,0,0,.767,6.354,2.711,2.711,0,0,0,2.656,1.985,2.854,2.854,0,0,0,2.261-.819,7.811,7.811,0,0,0,1.266-3.151,35.852,35.852,0,0,1,1.933-5.759,23.384,23.384,0,0,1,2.408-4.393c.811-1.11,1.466-1.661,1.961-1.661.363,0,.547.264.547.791,0,.156-.016.407-.044.755,1.274.323,2.78,1.218,4.361.531a2.993,2.993,0,0,0,1.514-1.542,0,0,0,0,1,0,0c.064-.431.172-1.022.32-1.773a24.691,24.691,0,0,0,.447-3.127q0-3.229-3.227-3.227Z" transform="translate(-580.129 -435.191)" fill="#fff"/>
      <path id="Path_29" d="M673.746,467.063a9.1,9.1,0,0,1-3.1-3.846A12.6,12.6,0,0,1,669.6,458.1a15.388,15.388,0,0,1,1.414-6.726,11.428,11.428,0,0,1,3.846-4.617,9.442,9.442,0,0,1,5.46-1.661,8.344,8.344,0,0,1,5.012,1.466,9.054,9.054,0,0,1,3.127,3.846,12.612,12.612,0,0,1,1.042,5.112,15.117,15.117,0,0,1-1.442,6.726,11.54,11.54,0,0,1-3.9,4.617,9.475,9.475,0,0,1-5.436,1.661,8.3,8.3,0,0,1-4.988-1.466Zm8.391-5.735a10.055,10.055,0,0,0,1.166-5.36,7.068,7.068,0,0,0-.994-4.122,2.886,2.886,0,0,0-2.384-1.39,3.438,3.438,0,0,0-2.956,1.813,10.05,10.05,0,0,0-1.166,5.388,7.033,7.033,0,0,0,.995,4.17,2.985,2.985,0,0,0,2.48,1.342,3.363,3.363,0,0,0,2.856-1.837Z" transform="translate(-611.024 -434.524)" fill="#fff"/>
    </g>
    <text id="_" transform="translate(405.407 400.513)" fill="#1a1a1a" font-size="10" font-family="Montserrat-SemiBold, Montserrat" font-weight="600" letter-spacing="0.05em"><tspan x="0" y="0">®</tspan></text>
  </g>
</svg>
