<svg xmlns="http://www.w3.org/2000/svg" width="298.965" height="258.998" viewBox="0 0 298.965 258.998">
  <g id="undraw_happy_announcement_re_tsm0" transform="translate(0 3.729)">
    <path id="Path_38" d="M522.55,652.91l3.265-10.634a35.892,35.892,0,0,0-14.347-9.612c5.367,8.892.166,20.491,2.334,30.648a21.589,21.589,0,0,0,11.564,14.713l4.955,6.14a36.177,36.177,0,0,0,2.659-30.174,34.948,34.948,0,0,0-4.046-7.777C525.989,649.674,522.55,652.91,522.55,652.91Z" transform="translate(-398.19 -431.433)" fill="#f2f2f2"/>
    <path id="Path_39" d="M467.275,666.105l-1.82-10.974a35.894,35.894,0,0,0-17.128-2.2c8.769,5.565,9.287,18.266,15.757,26.391A21.589,21.589,0,0,0,481,687.328l7.173,3.285a36.177,36.177,0,0,0-11.077-28.193,34.945,34.945,0,0,0-7.09-5.156C468.909,661.676,467.275,666.105,467.275,666.105Z" transform="translate(-360.869 -443.269)" fill="#f2f2f2"/>
    <path id="Path_40" d="M510.809,588.693h-5.03l-2.393-19.4h7.423Z" transform="translate(-297.533 -338.692)" fill="#ffb6b6"/>
    <path id="Path_41" d="M735.694,751.18H719.477v-.205a6.313,6.313,0,0,1,6.312-6.312h0l2.962-2.247,5.527,2.248h1.416Z" transform="translate(-521.136 -496.303)" fill="#2f2e41"/>
    <path id="Path_42" d="M692.39,552.754l-3.429,3.679-15.823-11.477,5.061-5.43Z" transform="translate(-397.866 -321.097)" fill="#ffb6b6"/>
    <path id="Path_43" d="M946.436,706.476l-11.058,11.863-.15-.14a6.313,6.313,0,0,1-.314-8.921h0l.376-3.7,5.413-2.511.965-1.036Z" transform="translate(-647.472 -472.434)" fill="#2f2e41"/>
    <path id="Path_44" d="M808.895,590.083,803.578,601.2l-32.645-21.615-4.749-6.471L750.612,551.9l-6.33,10.044-4.4,10.5h0a11.573,11.573,0,0,0-5.183,8.446l-.2,1.859,2.783,25.02L726.7,611.016l-6.075-33.611,1.986-7.283,2.045-10.223,10.294-32.306H762.5l15.8,33.632,1.155,6.853,4.48,5.141Z" transform="translate(-521.813 -369.33)" fill="#42a5f5"/>
    <path id="Path_45" d="M768.586,398.341l4.637,3.531,5.593,1.719s2.312,32.522,4.4,34.605.2,2.139.623,4.846,1.436,8.254,1.436,8.254c-14.062,7.444-26.185,7.643-35.923-1.067a2.425,2.425,0,0,1,1.323-2.738c1.812-.962-1.671-5.45-.19-6.2s-.6-7.261-.6-7.261l1.367-13.583-1.08-2.171,2.635-13.286,4.572-1.67,1.826-4.4Z" transform="translate(-538.754 -292.934)" fill="#3f3d56"/>
    <path id="Path_46" d="M803.584,515.371a4.02,4.02,0,0,1,4.583-4.122l6.536-12.7,3.641,6.469-6.764,11.071a4.042,4.042,0,0,1-8-.715Z" transform="translate(-570.847 -352.161)" fill="#ffb6b6"/>
    <path id="Path_47" d="M819.652,460.54l14.018-21.726-.046-.1c-.053-.115-3.227-6.97-6.3-13.25-.474-.967-.945-1.92-1.4-2.833q-.3-.591-.583-1.157c-1.292-2.547-2.42-4.652-3.094-5.652a11.866,11.866,0,0,0-6.288-4.77l-.065-.017-.062.026a6.021,6.021,0,0,0-3.583,6.624,42.651,42.651,0,0,0,7.914,17.893l2.272,3-7.9,17.169Z" transform="translate(-575.909 -300.437)" fill="#3f3d56"/>
    <path id="Path_48" d="M702.356,326.411a4.02,4.02,0,0,1-.965,6.088l2.922,13.984-6.9-2.733-1.717-12.86a4.042,4.042,0,0,1,6.661-4.479Z" transform="translate(-506.815 -249.587)" fill="#ffb6b6"/>
    <path id="Path_49" d="M696.505,351.3,699.3,377l.1.049c.082.04,3.618,1.775,7.958,3.84.732.348.627,1.858,1.393,2.219.527.249,1.919-.653,2.452-.4,4.745,2.219,9.542,4.376,11.454,4.961a11.866,11.866,0,0,0,7.888-.254l.061-.028.032-.059a6.021,6.021,0,0,0-1.387-7.4,42.651,42.651,0,0,0-17.415-8.916l-3.652-.9L703.5,351.8Z" transform="translate(-507.558 -265.127)" fill="#3f3d56"/>
    <circle id="Ellipse_7" cx="9.173" cy="9.173" r="9.173" transform="translate(215.715 85.605)" fill="#ffb6b6"/>
    <path id="Path_50" d="M760.481,351.634c.754-2.195,4.51-3.717,10.6-3.928s7.632,6.962,7.632,6.962c4.064,3.3-4.34,12.123-4.746,11.805l.183-1.658c.3-2.747,1.589-4.89-.047-7.752l-1.571.018-6.086,1.17,2.4-2.115-.068-.1a9.294,9.294,0,0,1-3.278,1,3.513,3.513,0,0,1-3.32-1.574,2.642,2.642,0,0,1-.3-1.006,5.351,5.351,0,0,0-2.537,2.841A32.9,32.9,0,0,1,760.481,351.634Z" transform="translate(-544.701 -263.002)" fill="#2f2e41"/>
    <path id="Path_51" d="M324.255,357.8a4.919,4.919,0,0,0-.4-.449c.035-.048.07-.1.1-.148Z" transform="translate(-287.298 -268.618)" fill="#2f2e41"/>
    <path id="Path_52" d="M290.6,392.447c-1.5,2.665-4.5,4.152-7.467,4.881a18.66,18.66,0,0,1-10.15-.2c-.419-.135-.837-.292-1.243-.467a10.713,10.713,0,0,0,.462-1.592,10.92,10.92,0,0,0,.227-2.229,7.037,7.037,0,0,1-1.269,1.749,6.418,6.418,0,0,1-1.33,1.069,13.065,13.065,0,0,1-3.86-3.585c.065-.161.131-.323.192-.484a17.4,17.4,0,0,0,.75-2.591,17.716,17.716,0,0,0,.371-3.625,11.389,11.389,0,0,1-2.068,2.844,9.266,9.266,0,0,1-.794.755,10.437,10.437,0,0,1,.628-8.03c1.727-3.193,5.077-5.09,8.061-7.153s5.976-4.855,6.229-8.479c.17-2.447-.964-4.9-.51-7.306a5.645,5.645,0,0,1,9.587-2.9c-1.692,2.4-3.376,4.881-4.061,7.734-.7,2.905-.126,6.312,2.163,8.235a13,13,0,0,1,2.355,1.963c.807,1.1.811,2.565.942,3.917.262,2.63,1.121,5.16,1.583,7.764S291.892,390.14,290.6,392.447Z" transform="translate(-251.86 -266.373)" fill="#2f2e41"/>
    <path id="Path_53" d="M19.519,556l3.981,3.076,13.758-13.891-5.876-4.54Z" transform="translate(-11.537 -321.759)" fill="#a0616a"/>
    <path id="Path_54" d="M242.613,706.039l6.583,4.487-2.083,2.7,2.79,8.755a2.128,2.128,0,0,1-3.329,2.331l-7.492-5.789.769-3.665-2.565,2.277-2.825-2.183Z" transform="translate(-234.462 -474.802)" fill="#2f2e41"/>
    <path id="Path_55" d="M303.369,362.864a9.5,9.5,0,1,0,16.344-6.591l-.046-.046c-.076-.08-.152-.16-.232-.236h0a0,0,0,0,1,0,0c-.1-.091-.2-.182-.3-.27-1.672-1.467-4.023-3.06-6.421-3.06C307.461,352.659,303.369,357.615,303.369,362.864Z" transform="translate(-275.19 -265.933)" fill="#2f2e41"/>
    <path id="Path_56" d="M390.5,361.043a3.481,3.481,0,0,1-3.769,3.779L363.2,386.066l-4.049-6.4,24.4-18.872a3.5,3.5,0,0,1,6.946.244Z" transform="translate(-308.163 -268.992)" fill="#a0616a"/>
    <path id="Path_57" d="M339.527,410.79s.875,1.617,3.866-.88c2.394-2,13.864-10.676,16.335-14.232a2.734,2.734,0,0,0,3.219-.935l-6.77-5.929c-2.026.233-1.982,1.594-1.771,2.367l-5.107,2.314-13.188,8.428,2.763,7.71Z" transform="translate(-294.542 -287.303)" fill="#42a5f5"/>
    <path id="Path_58" d="M77.443,337.667l-.493,2.349-.419,8.663,18.437,1.013L94.4,336.368l-1.787-2.936Z" transform="translate(-45.235 -199.283)" fill="#a0616a"/>
    <circle id="Ellipse_8" cx="7.968" cy="7.968" r="7.968" transform="translate(32.054 91.162)" fill="#a0616a"/>
    <path id="Path_59" d="M297.667,427.356l-.049-6.623a10.541,10.541,0,0,1,8.163-10.274l.03-.007,1.576-2.123,6.4.64,1.173,2.4,4.638,2.762,1.786,5.741a6.789,6.789,0,0,1,2.934,4.547c.606,3.873-2.105,7.748-2.428,8.192l-.831,4.681-18.079,3.19-.147.019Z" transform="translate(-271.791 -298.837)" fill="#42a5f5"/>
    <path id="Path_60" d="M329.675,367.209a27.156,27.156,0,0,1-2.888,1.592,16.612,16.612,0,0,1-3.149,1.138,10.884,10.884,0,0,0-1.134-1.932,7.026,7.026,0,0,1,.009,2.159,11.248,11.248,0,0,1-5.369-.441l-1.5-2.517-.113,2.809c-1.243.227-2.482.441-3.725.663-.074.009-.148.026-.218.039a10.478,10.478,0,0,1,2.757-9.635,8.77,8.77,0,0,1,9.212-1.788c.2.078.4.166.589.257a0,0,0,0,0,0,0h0c.113.057.209.192.336.179C329.928,359.131,330.1,363.353,329.675,367.209Z" transform="translate(-279.903 -269.5)" fill="#2f2e41"/>
    <path id="Path_61" d="M89.3,530.843l3.987,3.067,13.73-13.919-5.885-4.527Z" transform="translate(-52.78 -306.875)" fill="#a0616a"/>
    <path id="Path_62" d="M313.286,681.594l6.592,4.474-2.078,2.7,2.808,8.749a2.128,2.128,0,0,1-3.324,2.337l-7.5-5.774.762-3.666-2.56,2.282-2.829-2.177Z" transform="translate(-276.244 -460.354)" fill="#2f2e41"/>
    <path id="Path_63" d="M278.856,558.257v-.052l1.89-3.256-1.93-4.239-.058-10.89.313-1.635a13.753,13.753,0,0,0-.357-6.608h0l-.035-6.629c-.068-1.661,2.5-3.121,1.9-4.506-5.67-13.086,5.79-23.068,5.868-23.148l.234-.243,1.271.962h1.209l16.321,2.974.118.22a25.891,25.891,0,0,1,1.954,7.233c.813.942,10.079,11.663,10.9,12.408,5.566,5.036,8.753,13.372,10.157,17.892a7.179,7.179,0,0,1-1.229,6.6l-21.071,23.08-5.67-5.234,11.4-20.776-.822-2.108a6.479,6.479,0,0,1-3.777-2.194l-2.309-2.74a5.124,5.124,0,0,1-1.169-2.665l-1.4-.168-5.015-5.266-3.479,31.51-.946,2.489-16.474,19.367-6.979-4.362Z" transform="translate(-255.277 -351.278)" fill="#2f2e41"/>
    <path id="Path_64" d="M279.948,313.932a3.481,3.481,0,0,0,1.073,5.228l-5.238,15.508L280.06,351.1l6.9-3.118-4.256-12.4,3.184-18.043a3.5,3.5,0,0,0-5.937-3.613Z" transform="translate(-258.885 -242.25)" fill="#a0616a"/>
    <path id="Path_65" d="M283.956,396.273s-1.62.87-2.747-2.859c-.9-2.986-7.04-19.2-7.151-23.524a2.734,2.734,0,0,1-2.176-2.55l8.915-1.234c1.564,1.308.78,2.421.18,2.951l3.036,5.143,6.346,13.885-5.222,7.581Z" transform="translate(-256.58 -273.881)" fill="#42a5f5"/>
    <path id="Path_66" d="M312.468,371.46a16.208,16.208,0,0,1,12.478-10.844c.011,0,.049-.019.1-.042.03-.019.068-.038.106-.057-.114-.065-.224-.122-.338-.179h0a0,0,0,0,1,0,0c-.1-.091-.2-.182-.3-.27l-.289.011S314.068,358.469,312.468,371.46Z" transform="translate(-280.568 -270.28)" fill="#fd6584"/>
    <ellipse id="Ellipse_9" cx="3.622" cy="4.169" rx="3.622" ry="4.169" transform="translate(153.95 188.37) rotate(-56.364)" fill="#f2f2f2"/>
    <ellipse id="Ellipse_10" cx="3.622" cy="4.169" rx="3.622" ry="4.169" transform="translate(131.459 126.211) rotate(-56.364)" fill="#f2f2f2"/>
    <ellipse id="Ellipse_11" cx="3.622" cy="4.169" rx="3.622" ry="4.169" transform="translate(225.515 221.903) rotate(-56.364)" fill="#f2f2f2"/>
    <ellipse id="Ellipse_12" cx="3.622" cy="4.169" rx="3.622" ry="4.169" transform="translate(35.359 21.931) rotate(-56.364)" fill="#f2f2f2"/>
    <ellipse id="Ellipse_13" cx="3.622" cy="4.169" rx="3.622" ry="4.169" transform="translate(124.098 2.302) rotate(-56.364)" fill="#f2f2f2"/>
    <ellipse id="Ellipse_14" cx="3.622" cy="4.169" rx="3.622" ry="4.169" transform="translate(82.1 166.988) rotate(-56.364)" fill="#e6e6e6"/>
    <path id="Path_67" d="M519.661,763.4H253.731a.487.487,0,1,1,0-.974h265.93a.487.487,0,1,1,0,.974Z" transform="translate(-245.563 -508.131)" fill="#ccc"/>
    <path id="Path_68" d="M354.861,249.424a9.1,9.1,0,0,1-9.015-8.109L340.655,193.1a9.091,9.091,0,0,1,8.056-10l154.151-16.6a9.091,9.091,0,0,1,10,8.056l5.192,48.216a9.091,9.091,0,0,1-8.057,10l-.022-.2.022.2-154.151,16.6a9.194,9.194,0,0,1-.986.053Z" transform="translate(-297.198 -155.87)" fill="#e6e6e6"/>
    <path id="Path_69" d="M506.938,172.048a8.126,8.126,0,0,0-.867.047l-148.593,16a7.958,7.958,0,0,0-7.06,8.764l2.625,24.379a30.184,30.184,0,0,0,33.242,26.78l104.486-11.25a30.093,30.093,0,0,0,26.7-33.141l-2.635-24.47a7.959,7.959,0,0,0-7.9-7.107Z" transform="translate(-302.972 -159.181)" fill="#fff"/>
    <path id="Path_70" d="M533.768,228.851l-83.051,8.942a1.817,1.817,0,0,1-.389-3.614l83.05-8.942a1.817,1.817,0,1,1,.389,3.614Z" transform="translate(-361.093 -190.612)" fill="#90caf9"/>
    <path id="Path_71" d="M536.688,255.974l-83.05,8.942a1.817,1.817,0,1,1-.389-3.614L536.3,252.36a1.817,1.817,0,1,1,.389,3.614Z" transform="translate(-362.819 -206.644)" fill="#90caf9"/>
    <path id="Path_72" d="M466.236,302.415l-9.678,1.042a1.817,1.817,0,0,1-.389-3.614l5.229-.563,4.45-.479a1.817,1.817,0,0,1,.389,3.614Z" transform="translate(-364.545 -234.093)" fill="#90caf9"/>
    <circle id="Ellipse_15" cx="3.272" cy="3.272" r="3.272" transform="translate(51.125 32.719)" fill="#3f3d56"/>
    <circle id="Ellipse_16" cx="3.272" cy="3.272" r="3.272" transform="translate(197.524 16.362)" fill="#3f3d56"/>
    <path id="Path_73" d="M612.417,328.985a2.694,2.694,0,0,1-.914-2.125,35.847,35.847,0,0,0-2.3-13.935,2.694,2.694,0,0,1,.183-2.306,2.633,2.633,0,0,1,1.819-1.28,14.589,14.589,0,0,1,11.589-1.914,2.664,2.664,0,0,1,2.929,1.837,59.293,59.293,0,0,1,2.6,15.754A2.664,2.664,0,0,1,626.1,327.7l-11.5,1.9A2.633,2.633,0,0,1,612.417,328.985Z" transform="translate(-455.851 -238.917)" fill="#1e88e5"/>
    <path id="Path_74" d="M618.79,322.9l9.683-1.6a.613.613,0,0,0-.2-1.21l-9.683,1.6a.613.613,0,0,0,.2,1.21Z" transform="translate(-461.202 -246.678)" fill="#fff"/>
    <path id="Path_75" d="M620.746,334.74l9.683-1.6a.613.613,0,1,0-.2-1.21l-9.683,1.6a.613.613,0,0,0,.2,1.21Z" transform="translate(-462.358 -253.676)" fill="#fff"/>
    <path id="Path_76" d="M622.7,346.579l9.683-1.6a.613.613,0,1,0-.2-1.21l-9.683,1.6a.613.613,0,1,0,.2,1.21Z" transform="translate(-463.514 -260.673)" fill="#fff"/>
  </g>
</svg>
