<svg xmlns="http://www.w3.org/2000/svg" width="31.758" height="31.758" viewBox="0 0 41.758 41.758">
    <path d="M20.879.563A20.879,20.879,0,1,0,41.758,21.442,20.876,20.876,0,0,0,20.879.563Zm0,8.082a7.409,7.409,0,1,1-7.409,7.409A7.409,7.409,0,0,1,20.879,8.645Zm0,28.961A16.133,16.133,0,0,1,8.545,31.864a9.387,9.387,0,0,1,8.293-5.035,2.06,2.06,0,0,1,.6.093,11.147,11.147,0,0,0,3.443.581,11.1,11.1,0,0,0,3.443-.581,2.06,2.06,0,0,1,.6-.093,9.387,9.387,0,0,1,8.293,5.035A16.133,16.133,0,0,1,20.879,37.606Z"
          transform="translate(0 -0.563)" fill="#FFB703"/>
</svg>