<svg xmlns="http://www.w3.org/2000/svg" width="22.958" height="19.038" viewBox="0 0 37.958 35.038">
    <g transform="translate(-3.375 -4.5)">
        <path d="M17.491,29.8V14.236a3.894,3.894,0,0,1,3.9-3.9H39.362V8.4A3.881,3.881,0,0,0,35.5,4.5H7.39A3.944,3.944,0,0,0,3.375,8.332V35.706A3.944,3.944,0,0,0,7.39,39.538h28.1a3.875,3.875,0,0,0,3.86-3.9V33.7H21.378A3.892,3.892,0,0,1,17.491,29.8Z"
              transform="translate(0 0)" fill="#1b2853"/>
        <path d="M17.227,13.413V26.187a1.464,1.464,0,0,0,1.46,1.46H35.749a1.464,1.464,0,0,0,1.46-1.46V13.413a1.464,1.464,0,0,0-1.46-1.46H18.686A1.464,1.464,0,0,0,17.227,13.413Zm7.035,9.3a2.921,2.921,0,1,1,2.728-2.728A2.922,2.922,0,0,1,24.262,22.711Z"
              transform="translate(4.124 2.219)" fill="#1b2853"/>
    </g>
</svg>