<svg width="154" height="154" viewBox="0 0 154 154" fill="none" xmlns="http://www.w3.org/2000/svg">
<path d="M76.6899 0C69.8605 16.7407 65.7414 27.691 58.1377 43.9341C62.7997 48.8748 68.5221 54.6286 77.8151 61.1269C67.8242 57.0165 61.0091 52.8897 55.9161 48.6073C46.1849 68.9091 30.939 97.828 0 153.409C24.317 139.373 43.1671 130.719 60.7345 127.417C59.9801 124.174 59.5512 120.665 59.5804 117.004L59.6092 116.225C59.9951 100.648 68.0994 88.6703 77.6997 89.4836C87.3001 90.2969 94.7623 103.591 94.3764 119.167C94.3039 122.098 93.9732 124.918 93.3955 127.533C110.772 130.931 129.421 139.563 153.409 153.409C148.679 144.702 144.457 136.854 140.425 129.379C134.074 124.458 127.45 118.053 113.938 111.119C123.226 113.532 129.875 116.315 135.058 119.427C94.0664 43.1212 90.747 32.9817 76.6899 0Z" fill="#1793D1"/>
</svg>
